<?xml version="1.0" standalone="no"?>
<!DOCTYPE svg PUBLIC "-//W3C//DTD SVG 20010904//EN"
 "http://www.w3.org/TR/2001/REC-SVG-20010904/DTD/svg10.dtd">
<svg version="1.0" xmlns="http://www.w3.org/2000/svg"
 width="3508.000000pt" height="2480.000000pt" viewBox="0 0 3508.000000 2480.000000"
 preserveAspectRatio="xMidYMid meet">

<g transform="translate(0.000000,2480.000000) scale(0.100000,-0.100000)"
fill="red" stroke="none">
<path d="M1872 16673 l-11 -35 112 -111 c281 -280 417 -526 492 -891 55 -273
78 -672 79 -1436 1 -554 0 -573 -40 -835 -65 -418 -254 -780 -562 -1077 l-90
-87 10 -36 11 -35 671 -2 c369 -2 707 -2 751 -1 44 1 146 2 226 2 l146 1 10
35 c11 35 10 36 -35 71 -160 121 -333 333 -421 518 -119 247 -161 405 -202
761 -15 136 -23 1663 -9 1838 38 465 224 859 572 1211 54 54 98 102 98 106 0
26 -61 28 -911 33 l-886 4 -11 -34z m745 -1675 c-3 -8 -6 -5 -6 6 -1 11 2 17
5 13 3 -3 4 -12 1 -19z"/>
<path d="M6227 16302 c-21 -23 -22 -153 -6 -711 6 -211 9 -385 6 -387 -2 -2
-156 -10 -342 -18 -337 -13 -338 -13 -357 -37 -16 -21 -18 -36 -13 -109 3 -47
8 -165 11 -262 5 -152 9 -179 24 -193 16 -14 58 -16 347 -15 l330 0 7 -76 c3
-42 6 -224 6 -403 0 -496 23 -968 56 -1181 36 -227 147 -456 293 -600 54 -55
83 -73 161 -107 320 -139 597 -144 940 -16 169 63 409 194 431 235 16 30 2
620 -15 631 -39 25 -54 19 -141 -57 -317 -277 -586 -359 -812 -249 -74 36
-162 128 -208 214 l-36 69 -9 653 c-5 358 -9 705 -10 770 l0 117 348 0 349 0
21 23 c20 21 21 38 31 292 10 268 10 270 -11 292 l-21 23 -349 0 -348 0 1 153
c0 83 4 325 8 537 7 376 7 386 -12 408 -20 22 -21 22 -342 22 -299 0 -323 -1
-338 -18z m608 -603 c-6 -507 -6 -542 11 -560 16 -18 34 -19 369 -19 l351 0
-3 -97 c-2 -54 -6 -158 -9 -230 l-6 -133 -347 0 -348 0 -22 -24 -23 -24 9
-799 8 -799 28 -55 c58 -119 169 -239 267 -289 102 -52 264 -67 384 -35 145
38 317 133 461 253 l75 63 2 -171 c1 -93 3 -204 3 -246 l0 -77 -95 -55 c-260
-150 -499 -225 -725 -225 -164 0 -310 36 -470 116 -103 51 -179 133 -260 280
-134 244 -161 475 -172 1475 -5 516 -7 565 -23 585 -18 22 -20 22 -354 18
l-336 -3 -1 49 c-1 26 -4 125 -8 220 l-6 172 70 5 c39 3 195 10 347 16 153 6
285 13 293 16 19 8 19 28 0 44 -8 7 -15 17 -15 22 0 6 7 5 16 -3 14 -12 15 -8
10 32 -7 47 -26 719 -26 907 l0 112 276 0 277 0 -8 -541z"/>
<path d="M18086 16291 c-16 -17 -17 -43 -17 -228 1 -114 6 -356 12 -537 6
-180 9 -330 7 -332 -2 -2 -156 -9 -341 -16 -325 -11 -338 -13 -358 -34 -20
-21 -20 -26 -9 -285 9 -224 13 -266 27 -282 16 -17 35 -18 349 -15 l332 3 6
-420 c11 -677 29 -1048 61 -1250 33 -210 139 -431 279 -582 117 -127 407 -233
635 -233 170 0 376 54 568 147 132 65 281 153 289 173 3 8 16 154 29 325 25
329 26 318 -23 331 -18 5 -34 -3 -70 -35 -345 -304 -623 -397 -846 -284 -118
60 -231 205 -246 316 -4 34 -11 389 -15 790 l-7 727 355 0 c324 0 355 1 370
18 12 14 17 66 24 287 10 263 9 271 -10 293 l-20 22 -350 0 -349 0 7 540 c7
511 7 542 -10 560 -17 19 -32 20 -340 20 -304 0 -323 -1 -339 -19z m608 -601
c-7 -512 -6 -541 11 -560 17 -19 31 -20 367 -20 l348 0 0 -93 c0 -52 -3 -155
-7 -230 l-6 -137 -352 0 c-336 0 -353 -1 -370 -20 -16 -18 -17 -62 -10 -821
l8 -803 32 -62 c74 -142 193 -257 315 -305 78 -30 226 -37 323 -15 137 33 348
150 491 272 22 19 40 33 42 31 5 -5 -33 -474 -39 -484 -10 -17 -149 -96 -257
-147 -363 -172 -634 -178 -957 -21 -108 52 -114 57 -178 137 -76 95 -164 266
-195 378 -48 176 -66 454 -81 1230 -10 513 -13 597 -27 613 -14 16 -38 17
-348 11 l-332 -7 -6 89 c-3 49 -7 150 -8 224 l-3 135 350 13 c374 14 399 18
362 60 -19 21 -23 37 -5 26 8 -5 10 31 5 147 -4 85 -10 322 -14 527 l-6 372
277 0 278 0 -8 -540z"/>
<path d="M28281 16283 c-18 -15 -24 -34 -31 -113 -26 -263 -21 -1770 10 -3475
9 -484 12 -531 28 -547 15 -15 52 -20 239 -30 240 -13 269 -9 278 36 2 12 15
937 28 2056 22 1916 23 2036 7 2060 l-17 25 -260 3 c-237 2 -262 1 -282 -15z
m489 -295 c0 -128 -9 -912 -20 -1743 -11 -830 -20 -1633 -20 -1784 l0 -273
-87 6 c-49 3 -134 8 -189 12 l-101 6 -7 301 c-27 1207 -41 2954 -27 3365 5
177 13 327 16 332 4 6 92 10 221 10 l214 0 0 -232z"/>
<path d="M20475 15759 c-149 -27 -269 -118 -335 -253 -64 -132 -63 -179 5
-323 59 -126 132 -181 296 -223 74 -19 91 -20 143 -10 151 30 265 119 346 271
35 66 38 117 14 200 -46 155 -146 265 -283 314 -64 22 -140 32 -186 24z m193
-114 c115 -51 196 -168 209 -300 4 -45 0 -57 -34 -114 -72 -120 -190 -201
-297 -202 -49 -1 -156 25 -205 51 -70 36 -118 104 -156 219 -20 60 -14 94 31
183 87 172 278 241 452 163z"/>
<path d="M22055 14771 c-544 -144 -789 -471 -895 -1200 -20 -138 -20 -148 -5
-255 95 -646 428 -1036 974 -1141 82 -16 103 -17 170 -6 93 15 257 69 343 112
194 97 354 269 460 495 48 103 118 313 149 449 22 96 22 106 11 280 -30 479
-142 794 -357 1009 -161 161 -410 269 -650 282 -77 4 -105 0 -200 -25z m281
-66 c307 -54 517 -191 657 -430 107 -184 166 -423 187 -760 11 -168 10 -183
-10 -279 -30 -141 -100 -347 -154 -456 -145 -292 -362 -454 -705 -525 -68 -14
-83 -14 -159 0 -246 46 -427 139 -578 297 -161 168 -249 350 -315 648 -50 225
-16 541 92 847 128 362 336 546 734 648 109 28 137 29 251 10z"/>
<path d="M22159 14203 c-202 -51 -336 -194 -398 -424 -67 -245 -66 -410 4
-620 79 -237 285 -410 472 -396 91 7 199 61 272 135 114 117 201 361 201 566
0 263 -71 488 -193 614 -96 100 -249 153 -358 125z m206 -112 c166 -82 248
-263 261 -576 6 -132 4 -146 -24 -255 -55 -213 -127 -321 -257 -382 -99 -46
-157 -45 -257 5 -131 64 -214 178 -263 358 -36 133 -41 231 -20 364 48 306
140 445 340 512 61 20 147 10 220 -26z"/>
<path d="M20254 14719 c-21 -24 -21 -30 -39 -1287 -16 -1207 -16 -1264 0
-1282 17 -19 33 -20 275 -20 253 0 257 0 277 23 21 22 21 26 25 1279 l4 1258
-20 19 c-19 18 -42 20 -261 27 l-240 7 -21 -24z m461 -73 c0 0 -2 -548 -5
-1216 l-5 -1215 -214 -3 -214 -2 6 257 c4 142 12 688 18 1213 6 525 13 961 15
968 3 10 46 11 201 6 109 -4 198 -7 198 -8z"/>
<path d="M9530 14683 c-362 -37 -628 -142 -806 -318 -219 -216 -293 -479 -265
-948 32 -542 99 -748 308 -948 88 -84 174 -143 313 -217 185 -99 387 -146 685
-161 256 -13 372 2 534 68 94 39 225 117 271 161 l37 35 7 205 c3 113 6 241 6
286 l0 80 -34 16 c-33 16 -34 16 -57 -9 -36 -38 -134 -109 -206 -149 -91 -51
-234 -100 -381 -130 -120 -24 -133 -25 -235 -14 -139 15 -272 51 -357 96 -174
91 -293 293 -302 514 l-3 75 800 8 c946 9 845 -9 845 153 0 447 -128 792 -368
990 -184 151 -508 236 -792 207z m225 -83 c314 -30 538 -153 678 -372 107
-166 177 -460 177 -739 l0 -66 -802 -7 -803 -7 -24 -27 c-23 -25 -23 -31 -17
-122 8 -126 36 -232 87 -330 49 -96 145 -202 223 -249 118 -71 353 -131 513
-131 196 0 503 101 679 225 l64 44 0 -214 0 -215 -47 -34 c-75 -54 -189 -112
-293 -147 -90 -31 -104 -33 -265 -37 -266 -6 -514 29 -695 100 -89 34 -263
136 -349 204 -233 184 -309 396 -341 950 -25 419 37 663 215 852 164 174 400
277 725 316 148 18 146 18 275 6z"/>
<path d="M9495 14294 c-289 -51 -444 -185 -499 -431 -22 -98 -21 -146 4 -168
19 -17 48 -17 646 -7 565 10 628 13 645 28 15 14 19 31 19 89 0 178 -115 342
-305 436 -135 67 -323 86 -510 53z m304 -75 c232 -37 412 -198 428 -381 l6
-58 -59 0 c-33 0 -295 -5 -583 -10 -288 -6 -525 -9 -528 -7 -9 9 27 148 52
201 53 113 169 199 311 232 146 34 264 41 373 23z"/>
<path d="M23616 14652 c-17 -19 -17 -70 -3 -1232 l14 -1211 24 -23 24 -23 275
9 c198 7 279 13 288 22 25 24 32 90 22 222 -38 524 -36 738 10 917 39 154 118
258 222 293 62 20 233 15 289 -9 105 -46 155 -157 186 -417 13 -112 15 -210
10 -571 -4 -377 -3 -439 10 -451 12 -13 53 -15 271 -10 242 4 258 6 280 25
l22 20 0 726 c0 795 0 787 -60 915 -107 226 -359 399 -659 451 -106 19 -287
19 -383 1 -79 -15 -195 -56 -231 -81 -12 -8 -25 -15 -30 -15 -5 0 -7 97 -6
215 2 163 0 218 -9 227 -10 10 -82 14 -280 16 -256 3 -268 3 -286 -16z m478
-68 c14 -5 16 -36 16 -239 l0 -233 31 -12 c20 -9 36 -10 44 -4 161 120 305
162 520 151 145 -8 258 -37 380 -96 177 -87 293 -207 359 -369 l30 -77 4 -721
3 -721 -77 -6 c-138 -12 -354 -9 -354 6 0 6 5 131 10 275 11 291 1 612 -25
769 -50 307 -160 413 -427 413 -147 0 -235 -40 -312 -140 -120 -157 -166 -457
-136 -890 7 -102 15 -240 19 -306 l6 -122 -233 -7 c-128 -4 -235 -5 -238 -2
-4 4 -33 1937 -34 2275 l0 62 199 0 c110 0 206 -3 215 -6z"/>
<path d="M11221 14607 l-23 -26 -24 -1228 -23 -1228 20 -21 c20 -21 22 -21
367 -17 l347 5 20 24 c20 23 20 29 9 137 -26 240 -37 546 -25 721 37 540 192
806 531 907 65 19 100 22 261 24 146 1 191 4 207 15 19 14 22 38 43 313 l23
298 -21 20 c-18 18 -41 22 -174 31 -166 12 -326 2 -469 -28 -97 -20 -284 -83
-382 -128 l-78 -35 0 107 c0 116 -8 139 -42 121 -20 -11 -432 -5 -506 7 -31 5
-41 2 -61 -19z m422 -77 l107 0 0 -102 0 -103 30 -17 c29 -17 31 -16 117 24
292 135 564 190 845 170 65 -5 120 -11 123 -13 3 -4 -31 -504 -35 -504 -286 0
-339 -3 -415 -23 -216 -59 -382 -201 -475 -406 -107 -238 -150 -558 -130 -988
6 -128 15 -267 20 -308 4 -41 6 -77 3 -80 -2 -3 -139 -7 -304 -8 l-299 -4 5
44 c2 23 7 210 10 413 12 883 26 1641 31 1774 l6 144 127 -6 c69 -4 174 -7
234 -7z"/>
<path d="M3783 14589 l-21 -24 14 -1210 15 -1210 23 -23 23 -24 272 10 c255 8
274 10 293 30 30 30 32 87 14 332 -19 247 -22 572 -6 680 34 222 97 342 208
397 52 26 67 28 167 28 100 0 115 -3 166 -28 123 -60 168 -196 190 -570 9
-151 9 -273 0 -513 -11 -296 -10 -316 6 -339 l18 -25 260 6 c212 6 263 9 278
22 16 14 17 63 17 757 0 728 0 744 -21 811 -28 90 -56 145 -115 223 -98 131
-298 254 -499 308 -90 24 -118 26 -275 27 -163 0 -181 -2 -265 -28 -49 -15
-114 -41 -144 -57 l-54 -31 5 221 c4 185 3 223 -9 233 -11 8 -93 13 -276 16
l-262 4 -22 -23z m382 -65 l110 -7 -3 -232 -3 -231 26 -12 c36 -17 35 -17 108
32 123 83 286 123 457 113 327 -20 594 -168 714 -397 67 -128 66 -108 66 -891
l0 -708 -215 -1 -216 -1 8 28 c4 15 7 215 7 443 1 351 -2 433 -17 534 -34 222
-87 341 -180 403 -70 47 -116 57 -252 58 -116 0 -123 -1 -187 -33 -135 -66
-214 -203 -255 -441 -22 -128 -21 -445 1 -744 10 -126 16 -230 14 -232 -2 -2
-109 -7 -239 -12 l-237 -8 -7 570 c-4 314 -10 838 -14 1165 -5 327 -6 598 -4
603 5 9 168 9 318 1z"/>
<path d="M13315 14550 c-17 -19 -17 -69 -5 -1232 l12 -1213 23 -24 23 -23 278
11 c225 9 281 14 294 26 20 20 20 193 1 479 -25 373 -2 631 68 779 41 86 112
151 189 173 69 20 216 14 279 -11 148 -59 203 -287 202 -830 0 -137 -4 -324
-8 -415 -12 -230 -39 -211 288 -203 242 5 257 7 280 27 l24 21 -8 749 -7 749
-23 69 c-35 104 -81 174 -175 268 -97 97 -188 153 -331 204 -257 92 -563 86
-762 -15 -32 -16 -60 -29 -63 -29 -3 0 -4 97 -3 215 1 119 -1 218 -5 222 -14
14 -121 22 -332 22 -208 1 -222 0 -239 -19z m413 -67 l83 -6 -7 -223 c-8 -243
-7 -247 47 -259 24 -5 36 -1 64 23 45 40 146 88 231 109 104 26 322 23 436 -5
286 -71 499 -248 568 -470 19 -60 20 -98 20 -780 l1 -717 -208 -3 -208 -2 0
457 c0 478 -5 563 -46 711 -25 96 -51 144 -106 203 -70 74 -127 93 -288 94
-121 0 -134 -2 -187 -27 -142 -66 -225 -218 -264 -480 -19 -129 -16 -439 7
-755 7 -100 11 -184 8 -187 -2 -3 -108 -8 -236 -12 l-231 -7 -6 74 c-4 62 -27
1926 -26 2187 l0 82 133 0 c72 0 169 -3 215 -7z"/>
<path d="M27571 14549 c-150 -6 -176 -10 -192 -26 -16 -15 -20 -41 -26 -156
-3 -75 -8 -137 -10 -137 -2 0 -30 18 -62 40 -133 91 -312 150 -455 150 -169 0
-364 -41 -502 -104 -299 -139 -485 -400 -571 -802 -23 -111 -27 -152 -27 -299
0 -188 16 -280 73 -416 92 -218 297 -430 536 -553 118 -60 474 -82 628 -38
130 37 263 115 339 200 46 50 48 45 48 -102 0 -160 -19 -150 283 -147 195 2
245 5 258 17 15 13 17 126 24 1175 l7 1160 -23 25 c-25 27 -18 27 -328 13z
m266 -616 c-4 -302 -7 -804 -7 -1118 l0 -570 -199 0 -198 0 -6 154 c-7 164 -9
173 -59 185 -24 5 -32 -1 -72 -53 -98 -128 -226 -213 -371 -247 -93 -22 -282
-21 -416 1 -79 13 -119 26 -168 53 -145 81 -307 225 -390 348 -151 225 -187
538 -102 877 55 216 129 362 250 489 154 162 334 246 601 279 128 15 218 7
331 -31 106 -35 174 -71 265 -142 69 -52 72 -53 107 -37 24 11 24 14 30 171 3
88 7 162 10 164 3 3 85 9 183 13 99 4 188 9 198 9 19 2 19 -10 13 -545z"/>
<path d="M26663 13715 c-142 -44 -286 -220 -324 -395 -37 -174 46 -332 218
-412 57 -27 81 -32 167 -36 115 -5 192 15 278 70 103 65 207 212 239 339 11
41 10 55 -14 131 -49 157 -141 260 -268 299 -72 23 -231 25 -296 4z m305 -95
c86 -37 156 -131 187 -252 13 -46 12 -57 -5 -105 -45 -127 -129 -225 -237
-275 -228 -107 -503 31 -503 253 0 121 118 317 224 371 66 34 86 38 186 35 73
-3 107 -9 148 -27z"/>
<path d="M17280 14497 c-300 -11 -280 2 -280 -189 0 -76 -2 -138 -5 -138 -3 0
-26 15 -52 34 -104 74 -284 146 -403 161 -76 9 -274 -12 -390 -41 -120 -30
-294 -116 -380 -186 -206 -170 -344 -450 -390 -795 -18 -133 -9 -356 19 -463
72 -275 260 -506 546 -669 64 -37 90 -45 197 -63 175 -28 388 -22 503 15 105
35 192 87 276 167 l68 65 7 -93 c3 -51 4 -108 1 -127 -4 -25 -1 -38 14 -51 17
-16 45 -18 265 -18 235 -1 246 0 264 19 19 20 20 51 20 1180 l1 1159 -23 21
c-23 20 -27 20 -258 12z m198 -1186 c-2 -610 -6 -1112 -8 -1115 -3 -2 -91 -6
-196 -8 l-191 -3 -7 129 c-10 197 -12 204 -54 212 -33 6 -38 4 -61 -27 -89
-122 -229 -224 -361 -264 -140 -42 -474 -23 -585 33 -137 69 -295 200 -387
322 -63 83 -120 202 -150 310 -32 121 -32 396 0 547 53 245 139 420 276 561
170 176 414 271 707 273 87 1 118 -4 189 -26 104 -33 213 -90 297 -156 58 -45
64 -48 90 -37 15 7 30 14 33 16 3 2 7 76 10 165 l5 162 115 6 c63 3 153 6 199
7 l83 2 -4 -1109z"/>
<path d="M16337 13670 c-123 -31 -229 -128 -301 -273 -73 -147 -79 -269 -19
-378 91 -169 330 -252 528 -184 69 24 175 96 217 147 72 89 130 215 129 283 0
56 -43 174 -87 240 -74 112 -177 164 -334 171 -52 2 -112 -1 -133 -6z m255
-96 c95 -31 176 -133 209 -262 12 -47 11 -58 -6 -108 -26 -77 -91 -171 -152
-220 -74 -60 -150 -87 -248 -87 -104 0 -176 27 -249 94 -69 63 -91 120 -84
221 12 164 157 348 299 378 57 12 171 4 231 -16z"/>
<path d="M9209 12032 c-154 -102 -521 -447 -688 -647 -132 -158 -178 -229
-267 -411 -279 -573 -480 -1127 -590 -1624 -106 -480 -179 -879 -205 -1110
-16 -147 -16 -499 0 -609 74 -500 322 -814 760 -962 182 -62 502 -95 760 -78
497 32 811 120 1088 306 92 61 228 198 288 288 379 573 276 1460 -331 2835
-72 163 -327 679 -415 839 -50 92 -51 93 -82 87 -17 -4 -35 -10 -38 -14 -4 -4
-3 -104 3 -222 12 -238 0 -595 -27 -799 -60 -446 -195 -770 -363 -868 -55 -32
-137 -37 -188 -10 -136 70 -230 322 -279 742 -28 243 -16 512 39 875 22 149
27 164 116 385 162 404 293 653 456 867 73 96 87 131 62 156 -19 19 -40 14
-99 -26z m-669 -827 c0 -8 7 -15 15 -15 8 0 15 7 15 15 0 11 12 15 50 15 38 0
50 -4 50 -15 0 -10 10 -15 34 -15 33 0 34 -1 30 -37 -2 -21 -30 -105 -64 -187
-57 -141 -61 -159 -87 -338 l-26 -188 -79 0 c-63 0 -78 -3 -78 -15 0 -10 -10
-15 -30 -15 -20 0 -30 5 -30 15 0 8 -4 15 -10 15 -5 0 -10 11 -10 25 0 14 -4
25 -10 25 -5 0 -10 18 -10 40 0 29 -4 40 -15 40 -8 0 -15 5 -15 10 0 6 -11 10
-25 10 -15 0 -25 6 -25 14 0 8 -6 17 -12 19 -9 4 -10 8 -2 14 6 4 14 24 18 43
8 45 17 64 102 239 78 163 113 221 132 221 6 0 12 5 12 11 0 14 25 39 39 39 6
0 11 7 11 15 0 8 5 15 10 15 6 0 10 -7 10 -15z m-977 -3620 l6 -80 -14 60 c-8
33 -17 116 -19 185 l-6 125 14 -105 c7 -58 16 -141 19 -185z"/>
<path d="M14340 11578 c-178 -69 -493 -155 -781 -212 -759 -152 -1480 -148
-1979 10 l-75 24 -27 -28 -26 -27 84 -183 c308 -670 493 -1335 544 -1949 15
-189 13 -571 -5 -754 -29 -306 -99 -630 -196 -916 -57 -168 -131 -316 -238
-481 l-74 -113 16 -35 17 -34 712 2 712 3 17 30 17 30 -65 115 c-291 515 -373
963 -287 1570 8 58 17 115 20 128 9 44 315 177 499 218 112 24 294 29 407 10
176 -29 403 -116 572 -219 58 -35 60 -36 87 -20 22 13 30 27 33 57 3 23 8 239
12 481 l6 440 -34 16 c-33 16 -34 16 -68 -13 -95 -81 -240 -162 -364 -204
-270 -92 -550 -69 -936 76 -258 97 -237 85 -243 139 -4 25 -9 170 -13 321 l-7
276 54 48 c149 134 335 223 560 267 35 7 136 13 224 13 173 0 294 -20 445 -71
99 -33 251 -113 330 -173 64 -48 64 -48 97 -32 28 13 33 21 33 51 0 20 9 218
20 441 11 223 23 468 26 546 l7 141 -29 20 -29 21 -75 -30z m42 -90 c-6 -6
-15 -8 -19 -4 -4 4 -1 11 7 16 19 12 27 3 12 -12z m-156 -47 c-3 -5 -16 -11
-28 -14 -22 -6 -22 -5 -4 8 22 17 40 20 32 6z m-266 -80 c0 -12 -30 -22 -43
-14 -7 4 -3 9 9 14 26 10 34 10 34 0z m-1853 -177 c-3 -3 -12 -4 -19 -1 -8 3
-5 6 6 6 11 1 17 -2 13 -5z m675 -16 c-17 -8 -26 -8 -34 0 -9 9 -4 12 23 11
32 0 33 -1 11 -11z m-943 -498 c0 -13 -1 -13 -8 0 -5 8 -12 26 -15 40 l-7 25
15 -25 c9 -14 15 -32 15 -40z"/>
<path d="M28937 11563 c-16 -29 -15 -32 56 -174 183 -364 297 -835 352 -1449
22 -242 30 -756 16 -990 -18 -293 -56 -610 -74 -610 -14 0 -387 371 -511 510
-433 482 -814 1058 -1140 1720 -89 181 -119 270 -137 413 -19 149 20 306 106
420 l36 49 -19 31 c-13 22 -25 31 -38 29 -10 -2 -275 -6 -587 -8 -313 -2 -572
-6 -577 -9 -5 -3 -11 -19 -15 -35 -5 -22 -1 -37 18 -62 14 -18 45 -73 70 -123
298 -599 416 -2194 241 -3275 -72 -448 -190 -767 -348 -938 -35 -39 -38 -45
-30 -75 9 -31 11 -32 74 -35 36 -2 359 -1 717 3 l653 7 6 35 c6 32 2 38 -63
106 -39 40 -92 105 -118 145 -287 444 -408 1343 -344 2547 6 110 14 203 18
208 15 15 913 -1154 1232 -1603 210 -294 433 -631 539 -813 46 -80 60 -112 60
-143 0 -76 -40 -172 -161 -391 -22 -40 -23 -45 -9 -70 l16 -28 204 -6 c113 -4
374 -9 581 -13 l375 -6 16 33 c15 30 14 35 -12 87 -116 233 -228 841 -286
1545 -21 266 -30 1034 -15 1301 27 470 96 896 192 1189 36 110 122 301 165
366 25 39 5 87 -40 93 -17 3 -236 12 -486 21 -250 8 -514 18 -587 22 l-131 6
-15 -30z m1064 -320 c-8 -15 -10 -15 -11 -2 0 17 10 32 18 25 2 -3 -1 -13 -7
-23z m-74 -215 c-3 -8 -6 -5 -6 6 -1 11 2 17 5 13 3 -3 4 -12 1 -19z m-16 -59
c-9 -22 -10 -22 -10 -3 -1 11 2 24 6 27 12 12 14 0 4 -24z m-454 -1521 c-2
-13 -4 -5 -4 17 -1 22 1 32 4 23 2 -10 2 -28 0 -40z m-2560 -430 c-3 -8 -6 -5
-6 6 -1 11 2 17 5 13 3 -3 4 -12 1 -19z m2890 -580 c-3 -7 -5 -2 -5 12 0 14 2
19 5 13 2 -7 2 -19 0 -25z m40 -400 c-3 -7 -5 -2 -5 12 0 14 2 19 5 13 2 -7 2
-19 0 -25z m-3010 -50 c-3 -7 -5 -2 -5 12 0 14 2 19 5 13 2 -7 2 -19 0 -25z
m2273 -938 c9 -18 8 -20 -15 -20 -23 0 -24 2 -15 20 6 11 13 20 15 20 2 0 9
-9 15 -20z m970 -26 c0 -14 -12 -19 -23 -8 -9 9 4 35 14 28 5 -3 9 -12 9 -20z"/>
<path d="M31060 11480 c-74 -4 -203 -14 -287 -20 l-151 -13 -7 -35 c-8 -44 0
-52 90 -87 205 -80 321 -166 385 -286 l32 -61 0 -397 c-2 -802 -52 -1803 -158
-3136 -15 -182 -170 -362 -423 -489 -50 -26 -53 -29 -47 -58 3 -17 6 -35 6
-41 0 -12 518 -3 763 13 937 63 1566 269 1909 628 163 170 379 552 473 833 97
292 131 529 121 850 -12 404 -71 771 -167 1045 -188 536 -608 941 -1174 1133
-177 60 -310 88 -495 106 -194 19 -677 27 -870 15z m1700 -366 c0 -2 -9 0 -20
6 -11 6 -20 13 -20 16 0 2 9 0 20 -6 11 -6 20 -13 20 -16z m50 -30 c0 -2 -9 0
-20 6 -11 6 -20 13 -20 16 0 2 9 0 20 -6 11 -6 20 -13 20 -16z m-795 -406
c124 -34 286 -107 378 -169 271 -184 456 -494 541 -909 115 -560 69 -1044
-124 -1325 -130 -189 -366 -351 -647 -444 -123 -41 -319 -89 -328 -80 -2 3 0
581 5 1285 5 703 10 1370 10 1482 l0 202 28 -6 c15 -3 77 -19 137 -36z m984
-948 c1 -13 0 -13 -9 0 -5 8 -9 24 -9 35 l0 20 9 -20 c5 -11 9 -27 9 -35z"/>
<path d="M23187 11456 c-17 -25 -17 -27 4 -68 32 -63 67 -112 164 -228 106
-127 142 -178 159 -228 13 -35 27 -253 56 -872 18 -368 24 -1274 11 -1650 -12
-350 -35 -813 -47 -928 -8 -81 -33 -117 -185 -273 -116 -119 -179 -199 -193
-246 -5 -15 -1 -31 11 -47 l18 -25 1421 -1 1421 0 21 23 c22 23 22 24 22 508
l0 485 -35 17 -35 17 -73 -61 c-162 -137 -377 -237 -579 -269 -110 -18 -322
-8 -413 19 -95 28 -199 81 -262 133 -60 51 -133 136 -133 158 0 8 -21 62 -45
119 -52 121 -66 190 -54 281 35 280 203 484 449 546 97 25 287 15 405 -20 181
-55 401 -179 602 -342 l92 -75 30 16 31 16 0 665 0 665 -32 14 c-31 12 -34 12
-69 -18 -134 -117 -246 -185 -388 -237 -304 -111 -717 -64 -981 113 -75 50
-120 98 -120 128 0 14 -20 69 -44 120 -75 159 -81 250 -30 427 33 114 52 148
120 213 239 226 578 321 878 245 183 -47 328 -136 498 -308 103 -104 108 -107
136 -97 l29 10 6 112 c4 62 7 294 8 516 1 390 0 404 -19 424 -20 19 -41 19
-1428 24 l-1409 5 -18 -26z m1776 -73 c-18 -2 -48 -2 -65 0 -18 2 -4 4 32 4
36 0 50 -2 33 -4z m455 0 c-32 -2 -86 -2 -120 0 -35 2 -9 3 57 3 66 0 94 -1
63 -3z m-968 -766 c0 -2 -10 -12 -22 -23 l-23 -19 19 23 c18 21 26 27 26 19z
m1517 -2059 c-3 -8 -6 -5 -6 6 -1 11 2 17 5 13 3 -3 4 -12 1 -19z m-2687
-1572 c0 -3 -4 -8 -10 -11 -5 -3 -10 -1 -10 4 0 6 5 11 10 11 6 0 10 -2 10 -4z"/>
<path d="M21245 11060 c-18 -19 -18 -42 -6 -538 6 -285 14 -528 18 -540 5 -19
1 -22 -23 -23 -16 0 -170 -6 -342 -13 -311 -13 -313 -13 -336 -37 l-23 -24 10
-260 c7 -213 12 -263 24 -277 15 -17 45 -18 353 -18 l337 0 6 -537 c12 -1068
45 -1293 228 -1573 78 -119 140 -184 216 -227 279 -155 583 -184 888 -82 175
58 477 219 495 263 5 11 16 125 25 251 9 127 19 264 22 306 l6 77 -36 11 -36
12 -91 -80 c-233 -206 -438 -299 -633 -288 -76 4 -99 10 -161 41 -87 43 -174
129 -223 222 l-32 61 -11 749 c-5 412 -10 759 -10 772 l0 22 348 0 349 0 21
23 c21 22 23 37 33 290 9 242 9 268 -7 292 l-16 25 -354 0 -354 0 0 78 c1 42
5 284 10 537 9 460 9 460 -12 483 -21 22 -22 22 -343 22 -310 0 -323 -1 -340
-20z m618 -67 c2 -5 0 -248 -6 -541 -8 -501 -8 -535 9 -553 16 -18 34 -19 370
-19 l353 0 -5 -147 c-2 -82 -7 -185 -10 -230 l-6 -83 -347 0 -348 0 -22 -24
-22 -24 9 -800 10 -799 30 -59 c82 -162 208 -276 351 -318 69 -20 215 -21 301
-1 129 30 366 166 489 279 l34 31 -6 -60 c-3 -33 -11 -142 -18 -242 -7 -100
-15 -186 -18 -191 -10 -15 -143 -92 -246 -142 -358 -174 -641 -183 -960 -31
-81 38 -110 59 -153 105 -137 151 -225 342 -256 559 -34 233 -56 758 -56 1328
0 339 0 346 -21 365 -20 18 -38 19 -353 15 l-333 -3 -6 137 c-4 76 -7 175 -7
221 l0 83 53 5 c28 3 187 10 352 16 165 6 304 15 309 20 7 7 3 22 -9 43 -17
29 -17 31 -1 17 17 -13 18 -10 12 60 -6 71 -26 762 -26 918 l0 72 274 0 c151
0 277 -3 279 -7z"/>
<path d="M17600 9479 c-69 -16 -209 -58 -270 -81 -169 -66 -334 -192 -435
-333 -133 -186 -233 -486 -279 -843 -13 -97 -13 -125 0 -213 63 -451 244 -778
539 -976 122 -82 267 -139 437 -172 102 -20 105 -20 189 -1 129 28 196 49 285
90 318 146 508 418 630 900 38 149 40 197 24 406 -46 577 -239 940 -595 1116
-167 83 -410 133 -525 107z m253 -100 c179 -35 320 -105 439 -217 217 -205
322 -496 350 -972 l10 -185 -40 -157 c-140 -538 -353 -784 -773 -890 -116 -29
-129 -31 -199 -20 -171 25 -361 100 -484 191 -216 160 -355 398 -431 737 -47
211 -43 343 21 631 109 490 311 736 704 857 188 58 222 60 403 25z"/>
<path d="M17580 8877 c-143 -49 -236 -129 -301 -262 -79 -163 -123 -413 -101
-571 46 -316 205 -529 441 -589 55 -15 67 -15 122 0 193 49 320 193 395 450
32 110 42 271 24 410 -40 321 -172 512 -394 571 -71 19 -110 17 -186 -9z m205
-82 c199 -65 299 -276 299 -630 0 -147 -2 -168 -27 -250 -60 -196 -126 -289
-246 -348 -131 -64 -265 -33 -383 91 -69 72 -113 157 -144 279 -33 130 -38
203 -24 313 42 325 133 477 329 546 72 26 113 26 196 -1z"/>
<path d="M18905 9440 c-18 -20 -18 -58 -7 -1103 7 -595 12 -1139 12 -1209 0
-185 -25 -172 320 -164 l275 7 23 25 c19 22 22 36 22 112 0 48 -7 173 -15 277
-47 616 16 925 210 1020 55 27 222 33 298 11 168 -49 227 -269 226 -841 0
-132 -4 -316 -9 -410 -12 -232 -39 -212 293 -205 l259 5 20 25 c20 25 21 30
14 765 -8 815 -6 788 -73 916 -81 156 -236 288 -426 363 -273 108 -589 106
-809 -5 l-58 -29 -5 22 c-3 13 -2 106 3 208 5 102 6 191 4 198 -9 27 -58 32
-306 32 -241 0 -254 -1 -271 -20z m488 -295 l-6 -235 37 -15 c37 -16 38 -15
75 15 60 47 178 97 270 116 113 22 313 15 426 -16 230 -62 420 -201 505 -369
62 -123 60 -97 60 -874 1 -390 0 -711 -2 -712 -2 -2 -96 -6 -209 -10 l-207 -7
6 374 c7 539 -16 761 -95 918 -68 133 -161 180 -356 180 -141 0 -200 -21 -277
-99 -165 -167 -207 -451 -163 -1098 9 -139 15 -254 13 -256 -3 -2 -109 -7
-237 -11 l-231 -7 -6 103 c-5 93 -27 1822 -26 2116 l0 122 215 0 215 0 -7
-235z"/>
<path d="M14697 9422 c-17 -18 -19 -100 -41 -1248 -22 -1139 -23 -1230 -7
-1251 l16 -24 351 3 352 3 20 25 c12 14 19 32 17 40 -2 8 -12 101 -21 205 -21
248 -22 620 0 774 51 370 175 591 389 696 123 60 170 68 386 71 173 2 195 4
212 21 16 15 21 59 41 308 27 360 34 339 -110 348 -381 26 -566 -8 -979 -180
-10 -4 -13 20 -13 98 0 117 -6 135 -41 123 -28 -9 -223 -8 -419 1 -127 7 -136
6 -153 -13z m343 -77 l185 -6 3 -97 c2 -87 5 -99 25 -114 32 -25 44 -23 148
26 123 58 276 111 403 138 87 19 131 22 318 22 119 0 220 -2 223 -6 6 -5 -19
-371 -31 -467 l-6 -44 -80 6 c-94 6 -246 -7 -332 -28 -34 -8 -103 -35 -153
-60 -243 -120 -385 -374 -438 -789 -25 -193 -19 -682 11 -892 l6 -41 -297 -8
c-163 -4 -299 -4 -302 -1 -7 7 22 1888 34 2204 l6 173 46 -5 c25 -3 129 -8
231 -11z"/>
</g>
</svg>
