<?xml version="1.0" standalone="no"?>
<!DOCTYPE svg PUBLIC "-//W3C//DTD SVG 20010904//EN"
 "http://www.w3.org/TR/2001/REC-SVG-20010904/DTD/svg10.dtd">
<svg version="1.0" xmlns="http://www.w3.org/2000/svg"
 width="3508.000000pt" height="2480.000000pt" viewBox="0 0 3508.000000 2480.000000"
 preserveAspectRatio="xMidYMid meet">

<g transform="translate(0.000000, 2500.000000) scale(0.100000,-0.100000)"
fill="green" stroke="none">
<path d="M5220 20035 c-465 -283 -846 -520 -848 -527 -1 -8 54 -59 125 -115
70 -55 391 -317 712 -582 321 -266 589 -485 596 -488 7 -2 192 100 412 228
219 128 403 232 409 232 5 0 74 -49 152 -109 123 -95 139 -111 125 -121 -9 -7
-303 -173 -654 -369 -351 -195 -640 -362 -643 -369 -6 -17 13 -35 603 -584
324 -302 470 -431 482 -428 13 3 1244 711 1341 771 15 9 42 -13 178 -149 88
-88 156 -163 152 -166 -4 -4 -119 -75 -257 -158 -310 -186 -510 -321 -510
-344 0 -26 1442 -1260 1465 -1254 10 3 390 243 844 533 534 342 826 535 826
545 0 16 -1439 1160 -1467 1167 -14 4 -243 -120 -658 -355 l-200 -113 -157
157 c-87 87 -158 161 -158 164 0 3 295 177 655 385 508 294 655 383 653 396
-3 20 -1016 978 -1033 978 -6 0 -324 -175 -708 -390 l-698 -389 -145 111 c-79
62 -144 114 -144 117 0 4 178 110 395 236 274 159 395 234 393 245 -3 15
-1358 1244 -1382 1253 -6 3 -392 -226 -856 -508z m1525 -140 c511 -461 662
-602 652 -611 -20 -18 -1570 -917 -1582 -917 -6 0 -271 215 -590 479 -319 263
-631 519 -694 568 -81 64 -109 91 -100 97 8 4 376 229 819 498 443 270 811
489 817 488 7 -1 312 -272 678 -602z m2119 -1045 l493 -465 -26 -17 c-14 -9
-615 -356 -1334 -772 l-1308 -756 -38 32 c-144 125 -1000 933 -994 938 12 10
1250 700 1281 713 15 7 40 21 55 31 52 35 1362 765 1370 763 4 -1 229 -211
501 -467z m1107 -1701 c390 -308 709 -564 709 -567 -1 -6 -1599 -1032 -1620
-1040 -13 -5 -1421 1208 -1415 1218 8 14 201 141 365 242 278 170 373 222 405
223 22 0 29 4 27 16 -2 17 39 42 578 343 124 69 229 125 233 126 5 0 327 -252
718 -561z"/>
<path d="M5681 16712 c-468 -781 -754 -1503 -876 -2207 -9 -49 -18 -100 -21
-112 -4 -23 -5 -23 -207 -23 -111 0 -209 -4 -217 -10 -12 -8 -12 -61 6 -422
11 -227 23 -419 27 -426 6 -9 52 -12 172 -12 185 0 175 5 175 -86 0 -30 7
-121 15 -202 72 -687 308 -1386 689 -2035 l87 -149 -2 -665 c-1 -495 2 -668
10 -676 9 -9 127 -12 439 -12 l427 0 3 107 3 107 147 -154 c712 -741 1391
-1254 2180 -1649 1711 -856 3803 -1044 6297 -565 1119 214 2436 602 3660 1077
99 38 264 102 368 142 103 41 187 76 187 79 0 3 -4 12 -9 19 -6 10 -46 -1
-182 -54 -1361 -522 -2790 -858 -4124 -969 -638 -53 -1362 -58 -1955 -15
-1192 89 -2319 334 -3280 715 -1713 679 -3054 1869 -3980 3530 -113 204 -181
335 -172 335 10 0 8 1113 -2 1129 -5 8 -70 11 -211 11 l-204 0 -6 33 c-15 90
-25 298 -25 523 l0 251 803 6 c441 4 976 7 1190 7 l387 0 0 -22 c1 -13 11
-192 24 -398 13 -206 23 -377 21 -378 -2 -2 -264 -8 -582 -14 -430 -8 -581
-13 -591 -22 -10 -10 -11 -217 -2 -1122 5 -610 10 -1153 10 -1206 0 -93 1 -98
21 -98 21 0 21 2 15 163 -3 89 -9 628 -12 1198 l-6 1036 193 7 c107 3 371 9
586 12 272 5 395 10 401 18 9 13 -40 841 -51 852 -4 4 -545 6 -1202 5 l-1195
-2 0 43 c0 81 41 403 75 588 96 521 264 1058 508 1623 49 113 54 128 39 136
-14 7 -24 -2 -51 -47z m-142 -368 c-443 -1135 -574 -2126 -408 -3079 23 -129
53 -212 196 -525 1014 -2225 2662 -3725 4888 -4451 1474 -480 3219 -659 4865
-499 868 85 1839 271 2633 506 222 66 128 28 -196 -79 -1677 -553 -3116 -842
-4532 -908 -309 -14 -942 -6 -1225 16 -1448 112 -2670 510 -3745 1220 -456
301 -890 668 -1377 1163 l-228 232 0 45 c0 38 -3 45 -20 45 -12 0 -20 -7 -20
-17 0 -25 -31 7 -192 197 -775 914 -1241 1886 -1372 2865 -31 233 -39 391 -33
697 6 288 12 367 51 633 76 510 278 1126 547 1667 66 134 213 408 216 404 1
-1 -20 -60 -48 -132z m-775 -2117 c-19 -153 -34 -404 -34 -554 l0 -133 -155 0
c-155 0 -155 0 -155 23 0 36 -29 604 -35 690 l-5 77 198 0 198 0 -12 -103z
m755 -1236 c0 -268 3 -508 7 -532 5 -31 3 -41 -4 -34 -15 14 -183 374 -265
565 -64 152 -80 210 -110 403 l-14 87 193 0 193 0 0 -489z m146 -2166 c170
-252 345 -479 577 -747 l128 -148 0 -114 0 -114 -397 5 c-219 3 -401 8 -404
12 -4 3 -4 284 -1 624 2 339 6 616 7 615 1 -2 42 -61 90 -133z"/>
<path d="M24325 15290 c-214 -3 -396 -9 -404 -14 -12 -8 -13 -56 -8 -298 4
-159 9 -293 12 -299 9 -14 1532 -12 1541 2 8 13 5 584 -3 605 -6 15 -276 16
-1138 4z m1105 -172 c0 -84 3 -210 7 -280 l6 -128 -740 0 -741 0 -6 23 c-3 12
-6 133 -6 270 l0 247 238 1 c210 2 917 12 1155 17 l87 2 0 -152z"/>
<path d="M20617 14082 l-435 -437 -4 -450 c-3 -312 -1 -454 6 -461 14 -15 785
-37 801 -24 8 7 10 110 7 360 l-5 350 179 180 178 180 115 0 116 0 272 -502
271 -503 9 -145 c5 -80 7 -148 4 -151 -3 -4 -197 -32 -431 -64 -234 -32 -428
-61 -432 -64 -14 -12 -42 -671 -30 -683 6 -6 206 -37 444 -70 238 -32 438 -60
443 -62 7 -3 6 -48 -3 -141 l-15 -138 -242 -506 -243 -506 -149 -3 -148 -2
-150 184 c-176 216 -159 162 -169 541 -5 177 -11 264 -19 272 -9 9 -123 16
-411 24 -332 9 -400 9 -411 -2 -10 -11 -8 -98 13 -454 l26 -440 289 -297 289
-298 641 1 c353 1 673 4 711 8 l70 6 353 730 353 730 -6 740 -6 740 -436 889
c-240 488 -441 890 -447 891 -5 2 -224 6 -486 8 l-476 5 -436 -436z m1385 379
c3 -3 198 -397 432 -874 l426 -869 6 -731 6 -732 -342 -710 c-188 -390 -347
-715 -354 -721 -8 -9 -203 -13 -693 -17 l-682 -5 -234 242 c-128 132 -254 264
-279 291 l-46 50 -21 365 c-11 201 -23 391 -27 424 l-5 58 318 -6 c175 -4 348
-9 384 -12 l67 -6 6 -146 c3 -81 9 -217 12 -303 l6 -157 165 -201 164 -201
166 2 167 3 250 520 249 520 16 152 c11 109 12 156 4 164 -6 6 -208 37 -449
70 -241 33 -440 62 -442 64 -7 7 21 604 29 616 4 7 177 35 429 70 232 32 427
62 434 68 8 7 9 50 0 178 l-11 168 -193 355 c-106 195 -230 423 -274 505 l-82
150 -144 2 -145 3 -184 -191 -184 -190 7 -346 7 -345 -208 6 c-114 3 -283 9
-376 12 l-168 6 7 437 6 436 422 423 421 423 465 -6 c256 -4 468 -10 472 -14z"/>
<path d="M27446 14398 c-52 -68 -308 -402 -570 -743 l-476 -619 0 -401 c0
-220 -3 -645 -6 -945 l-6 -545 538 -672 537 -673 532 0 531 0 36 38 c19 20
136 181 259 356 l224 320 16 495 c11 353 12 500 4 508 -14 16 -702 50 -717 35
-6 -6 -9 -159 -8 -407 l1 -397 -117 -154 c-64 -85 -123 -159 -131 -166 -10 -8
-37 -8 -110 3 l-96 14 -290 420 c-159 231 -318 461 -352 511 l-62 92 -7 523
c-3 288 -9 587 -12 664 l-5 140 368 505 369 505 49 -3 c118 -9 114 -6 240
-152 65 -74 123 -143 130 -155 9 -13 18 -137 31 -383 10 -209 23 -369 29 -377
7 -10 92 -17 330 -28 176 -9 323 -13 327 -11 4 3 8 240 8 528 l0 522 -271 364
c-148 201 -279 375 -290 388 l-19 22 -460 0 -459 0 -95 -122z m1283 -295 l280
-378 1 -497 c0 -274 -3 -498 -7 -498 -34 0 -597 31 -599 33 -1 1 -9 139 -18
307 -9 168 -19 335 -22 371 l-6 67 -138 158 -137 159 -98 10 c-67 8 -101 8
-110 0 -7 -5 -177 -237 -379 -514 l-366 -505 1 -270 c0 -149 4 -455 7 -681 l7
-410 355 -514 c195 -283 358 -518 361 -523 6 -9 172 -37 220 -38 22 0 47 27
163 178 l137 177 -4 393 -4 392 56 -1 c100 -1 601 -26 605 -30 7 -8 -24 -935
-32 -959 -10 -28 -430 -630 -470 -673 l-26 -27 -510 2 -511 3 -527 659 -528
659 1 536 c1 295 4 718 8 941 l6 405 555 722 555 723 447 0 446 0 281 -377z"/>
<path d="M19225 14434 c-27 -2 -590 -8 -1250 -14 -884 -9 -1203 -15 -1212 -23
-9 -9 -5 -526 18 -2357 17 -1290 32 -2351 34 -2357 3 -10 75 -13 313 -13 170
0 337 3 371 6 l61 7 0 1998 0 1999 655 0 656 0 -8 -1502 c-5 -827 -8 -1721 -8
-1988 l0 -485 355 0 c195 0 363 4 373 7 16 7 17 127 15 2365 l-3 2358 -160 1
c-88 0 -182 -1 -210 -2z m335 -2363 l0 -2330 -332 -3 c-183 -2 -335 -2 -337
-1 -2 1 1 892 7 1980 6 1088 8 1981 3 1986 -4 4 -315 6 -692 5 l-684 -3 -3
-1996 -2 -1997 -333 -4 c-182 -3 -333 -4 -334 -3 -4 2 -64 4657 -61 4661 2 1
435 8 963 14 528 6 1041 12 1140 13 99 1 289 4 423 5 l242 2 0 -2329z"/>
<path d="M2253 13913 c-218 -285 -475 -619 -570 -743 l-173 -225 0 -481 c0
-264 -3 -690 -6 -945 l-6 -464 538 -672 538 -673 531 0 531 0 35 38 c20 20
137 181 260 356 l223 320 15 498 c9 310 11 502 5 508 -11 10 -699 44 -715 35
-7 -5 -9 -141 -8 -406 l1 -400 -123 -164 -124 -164 -40 1 c-22 0 -69 5 -104
12 l-64 11 -294 425 c-161 234 -320 464 -352 511 l-58 86 -7 484 c-3 266 -9
565 -12 664 l-5 180 368 505 368 505 50 -3 c121 -9 114 -5 250 -162 69 -80
127 -154 130 -165 2 -11 13 -181 23 -378 10 -197 23 -361 28 -366 10 -9 644
-42 657 -34 4 2 7 239 7 526 l0 523 -271 364 c-149 201 -279 375 -290 388
l-19 22 -460 0 -459 0 -398 -517z m1586 100 l281 -378 0 -497 c0 -468 -1 -498
-17 -498 -53 1 -586 30 -588 32 -2 2 -12 169 -24 371 l-20 368 -27 32 c-145
173 -251 288 -268 293 -12 2 -60 6 -107 7 l-87 2 -371 -510 -371 -510 1 -240
c0 -132 4 -438 8 -681 l8 -441 358 -519 c197 -285 359 -520 360 -522 6 -7 201
-33 223 -30 16 2 62 53 158 178 l135 175 -5 393 -5 392 72 -1 c124 -1 585 -24
590 -29 3 -3 -2 -221 -10 -485 l-15 -480 -221 -315 c-121 -173 -234 -330 -251
-347 l-30 -33 -508 0 -508 0 -24 28 c-13 15 -252 312 -530 661 l-506 634 1
596 c1 328 4 751 8 941 l6 345 555 722 555 723 447 0 446 0 281 -377z"/>
<path d="M23654 14413 c-308 -3 -374 -6 -384 -18 -15 -18 15 -4654 31 -4670 6
-6 165 -11 421 -14 434 -3 427 -4 428 42 0 16 849 2110 870 2146 6 10 10 -385
10 -1056 0 -778 3 -1074 11 -1079 18 -11 789 -28 799 -18 6 6 14 942 21 2318
10 1949 9 2310 -2 2320 -11 10 -96 9 -396 -3 -210 -9 -384 -19 -387 -22 -3 -3
-210 -581 -458 -1284 l-453 -1279 -2 194 c-2 107 3 692 10 1300 9 703 10 1110
4 1118 -6 8 -33 11 -81 10 -39 -2 -238 -4 -442 -5z m492 -315 c-11 -506 -29
-2416 -23 -2432 4 -9 12 -16 19 -16 8 0 192 506 483 1331 258 732 472 1335
475 1339 5 8 721 41 729 34 7 -6 -15 -4563 -22 -4570 -3 -4 -172 -3 -374 2
l-368 9 0 1112 c0 1063 -1 1112 -18 1117 -12 3 -21 -3 -27 -17 -4 -12 -208
-513 -453 -1114 -245 -600 -448 -1104 -451 -1120 l-7 -29 -387 4 c-213 2 -389
6 -390 7 -4 4 -31 3645 -32 4237 l0 378 268 3 c147 1 338 3 426 5 l158 2 -6
-282z"/>
<path d="M8274 14383 c-328 -3 -404 -6 -413 -17 -15 -18 15 -4655 30 -4671 5
-5 181 -11 424 -13 l414 -5 6 29 c4 16 9 36 11 44 2 8 199 493 437 1078 l432
1062 5 -1077 5 -1078 75 -6 c141 -11 728 -21 733 -12 11 17 29 4623 19 4636
-14 17 -779 -12 -790 -30 -4 -7 -209 -585 -457 -1286 l-450 -1273 -2 240 c-2
133 3 718 10 1301 8 645 9 1065 4 1073 -6 7 -27 11 -51 10 -22 -2 -222 -4
-442 -5z m462 -370 c-3 -186 -11 -796 -17 -1356 -11 -1015 -10 -1063 20 -1031
5 5 221 607 479 1337 259 731 472 1330 473 1332 6 5 723 34 728 29 6 -5 -13
-4572 -19 -4576 -7 -5 -722 12 -737 17 -10 4 -13 235 -13 1114 0 987 -2 1110
-15 1115 -10 4 -19 -2 -24 -17 -5 -12 -208 -510 -451 -1107 -244 -597 -447
-1101 -452 -1121 l-10 -36 -386 5 c-213 2 -389 6 -391 8 -4 4 -30 3468 -31
4161 l0 453 233 3 c127 1 319 3 426 5 l193 2 -6 -337z"/>
<path d="M12224 14373 c-226 -3 -304 -6 -312 -16 -6 -7 -286 -1027 -622 -2267
-336 -1240 -617 -2276 -625 -2301 -7 -25 -10 -52 -5 -58 5 -10 111 -17 394
-29 212 -8 389 -13 392 -9 4 3 179 714 390 1579 212 865 387 1580 390 1588 5
12 8 11 15 -5 5 -11 194 -731 419 -1599 226 -869 415 -1585 420 -1590 7 -7
145 -12 401 -14 325 -3 390 -1 394 10 8 19 -1293 4701 -1308 4710 -7 4 -19 7
-27 5 -8 -1 -151 -3 -316 -4z m334 -70 c6 -21 194 -697 417 -1503 224 -806
510 -1836 636 -2289 126 -454 227 -826 226 -827 -2 -2 -167 0 -368 3 l-366 6
-412 1586 c-226 872 -414 1596 -417 1609 -7 25 -40 30 -66 10 -11 -9 -141
-528 -401 -1591 -211 -868 -386 -1579 -388 -1581 -2 -1 -134 3 -294 10 -159 7
-320 13 -357 13 -47 1 -68 5 -68 14 0 6 278 1037 617 2289 l618 2278 180 3
c99 1 237 3 306 5 l126 2 11 -37z"/>
<path d="M14318 13648 c-305 -398 -562 -734 -571 -748 -15 -23 -17 -113 -17
-968 l-1 -943 492 -617 c271 -339 512 -641 536 -669 l45 -53 533 0 534 0 30
38 c16 20 131 181 255 357 220 313 225 321 226 370 0 28 7 252 15 499 8 248
11 454 7 458 -11 11 -695 43 -718 34 -16 -6 -17 -36 -10 -403 l7 -396 -128
-168 c-107 -141 -132 -169 -153 -168 -60 1 -183 27 -191 40 -4 8 -160 235
-347 506 l-340 492 -6 123 c-3 68 -8 371 -11 673 l-6 550 367 503 c343 471
368 503 393 498 14 -3 52 -8 84 -11 l57 -6 130 -150 c72 -83 130 -158 130
-167 0 -110 43 -729 50 -737 15 -14 641 -45 658 -32 9 7 12 124 12 522 l0 513
-288 389 -288 388 -466 3 -466 2 -554 -722z m1745 307 l277 -375 0 -501 0
-500 -77 5 c-43 3 -177 11 -298 17 -121 6 -222 15 -226 20 -3 5 -14 172 -24
371 l-18 361 -135 156 c-74 86 -140 159 -146 162 -15 9 -187 28 -200 23 -6 -3
-179 -237 -385 -520 l-373 -515 11 -676 c6 -371 15 -681 18 -687 19 -31 697
-1013 708 -1024 11 -12 168 -41 222 -42 17 0 54 42 160 180 l138 180 -4 390
-3 390 33 0 c19 0 168 -5 332 -12 l297 -12 0 -35 c0 -143 -31 -935 -37 -944
-32 -52 -441 -628 -461 -649 l-26 -28 -516 0 -517 0 -528 662 -528 663 6 365
c4 201 7 619 7 930 l1 565 557 727 557 727 450 0 450 0 278 -374z"/>
</g>
</svg>
