<svg width="198" height="49" viewBox="0 0 198 49" fill="none" xmlns="http://www.w3.org/2000/svg">
<g clip-path="url(#clip0_2239_5768)">
<path d="M25.083 32.5201C26.2897 31.8738 27.645 31.5417 29.1395 31.5417C31.4045 31.5417 33.2982 32.3136 34.8113 33.8485L36.6864 32.0982C35.7674 31.0929 34.6535 30.3389 33.3446 29.8273C32.0357 29.3157 30.5969 29.0643 29.0281 29.0643C27.0138 29.0643 25.1851 29.4952 23.5606 30.3569C21.9269 31.2186 20.6551 32.4034 19.7269 33.9203C18.8079 35.4373 18.3438 37.1338 18.3438 39.0277C18.3438 40.9216 18.8079 42.6271 19.7269 44.135C20.6459 45.652 21.9176 46.8368 23.5421 47.6985C25.1665 48.5602 26.9859 48.9911 29.0003 48.9911C30.5783 48.9911 32.0172 48.7308 33.3353 48.2101C34.6535 47.6895 35.7674 46.9266 36.6864 45.9302L34.8113 44.1799C33.2796 45.7417 31.3859 46.5227 29.1395 46.5227C27.645 46.5227 26.2897 46.1995 25.083 45.5443C23.8762 44.898 22.9294 44.0004 22.2518 42.8604C21.5741 41.7205 21.2307 40.4459 21.2307 39.0367C21.2307 37.6274 21.5741 36.3528 22.2518 35.2129C22.9201 34.064 23.867 33.1664 25.083 32.5201Z" fill="white"/>
<path d="M38.0234 31.7122H44.9112V48.7756H47.7331V31.7122H54.6395V29.2887H38.0234V31.7122Z" fill="white"/>
<path d="M60.0685 44.3235V29.2887H57.2188V48.7756H59.8736L71.8204 33.7677V48.7756H74.6424V29.2887H71.9875L60.0685 44.3235Z" fill="white"/>
<path d="M104.606 32.5201C105.813 31.8738 107.168 31.5417 108.663 31.5417C110.928 31.5417 112.822 32.3136 114.335 33.8485L116.21 32.0982C115.291 31.0929 114.177 30.3389 112.868 29.8273C111.559 29.3157 110.12 29.0643 108.552 29.0643C106.537 29.0643 104.709 29.4952 103.084 30.3569C101.45 31.2186 100.179 32.4034 99.2503 33.9203C98.3313 35.4373 97.8672 37.1338 97.8672 39.0277C97.8672 40.9216 98.3313 42.6271 99.2503 44.135C100.169 45.652 101.441 46.8368 103.065 47.6985C104.69 48.5602 106.509 48.9911 108.524 48.9911C110.102 48.9911 111.541 48.7308 112.859 48.2101C114.177 47.6895 115.291 46.9266 116.21 45.9302L114.335 44.1799C112.803 45.7417 110.909 46.5227 108.663 46.5227C107.168 46.5227 105.813 46.1995 104.606 45.5443C103.4 44.898 102.453 44.0004 101.775 42.8604C101.098 41.7205 100.754 40.4459 100.754 39.0367C100.754 37.6274 101.098 36.3528 101.775 35.2129C102.453 34.064 103.4 33.1664 104.606 32.5201Z" fill="white"/>
<path d="M118.914 48.7756H121.764V31.7122H133.451V48.7756H136.273V29.2887H118.914V48.7756Z" fill="white"/>
<path d="M152.023 30.3569C150.389 29.4952 148.569 29.0643 146.546 29.0643C144.977 29.0643 143.538 29.3157 142.229 29.8273C141.004 30.312 139.937 31.0121 139.055 31.9277L140.8 33.8126C142.313 32.2957 144.188 31.5417 146.434 31.5417C147.929 31.5417 149.284 31.8648 150.491 32.5111C151.698 33.1574 152.645 34.055 153.322 35.1949C154 36.3349 154.343 37.6095 154.343 39.0187C154.343 40.428 154 41.7025 153.322 42.8515C152.645 43.9914 151.698 44.889 150.491 45.5353C149.284 46.1816 147.929 46.5047 146.434 46.5047C144.188 46.5047 142.304 45.7328 140.772 44.1799L139.157 46.1905C140.02 47.0612 141.05 47.7254 142.248 48.2012C143.566 48.7218 145.005 48.9821 146.583 48.9821C148.597 48.9821 150.417 48.5512 152.041 47.6895C153.666 46.8278 154.928 45.634 155.856 44.1261C156.775 42.6181 157.239 40.9127 157.239 39.0187C157.239 37.1248 156.775 35.4193 155.856 33.9114C154.928 32.4124 153.656 31.2275 152.023 30.3569Z" fill="white"/>
<path d="M153.205 37.9236H145.826L144.164 39.9881H151.535L153.205 37.9236Z" fill="white"/>
<path d="M174.238 24.9802H166.199L164.547 27.0537H172.586L174.238 24.9802Z" fill="white"/>
<path d="M162.709 44.3235V29.2887H159.859V48.7756H162.505L174.452 33.7677V48.7756H177.274V29.2887H174.628L162.709 44.3235Z" fill="white"/>
<path d="M190.452 46.5227C188.958 46.5227 187.602 46.1995 186.395 45.5443C185.189 44.898 184.242 44.0004 183.564 42.8604C182.887 41.7205 182.543 40.4459 182.543 39.0367C182.543 37.6274 182.887 36.3528 183.564 35.2129C184.242 34.0729 185.189 33.1753 186.395 32.5291C187.602 31.8828 188.958 31.5507 190.452 31.5507C192.717 31.5507 194.611 32.3226 196.124 33.8575L197.999 32.1072C197.08 31.1019 195.966 30.3479 194.657 29.8363C193.348 29.3246 191.909 29.0733 190.341 29.0733C188.326 29.0733 186.498 29.5042 184.873 30.3658C183.239 31.2275 181.968 32.4124 181.039 33.9293C180.12 35.4463 179.656 37.1427 179.656 39.0367C179.656 40.9306 180.12 42.636 181.039 44.144C181.958 45.661 183.23 46.8458 184.855 47.7075C186.479 48.5692 188.298 49 190.313 49C191.891 49 193.33 48.7397 194.648 48.2191C195.966 47.6985 197.08 46.9356 197.999 45.9392L196.124 44.1889C194.592 45.7417 192.698 46.5227 190.452 46.5227Z" fill="white"/>
<path d="M85.679 29.2887L76.6562 48.7487H79.701L87.2664 32.0982L94.8225 48.7487H97.8672L88.8444 29.2887H85.679Z" fill="white"/>
<path d="M31.9232 11.7586C31.9232 10.9328 32.3502 10.1967 33 9.74792C14.7131 10.0621 0 24.4865 0 42.2321C0 44.4581 0.232068 46.6393 0.677637 48.7397C0.44557 47.2497 0.324895 45.7237 0.324895 44.1709C0.324895 27.296 14.4717 13.6166 31.9232 13.6166C32.2295 13.6166 32.5266 13.6345 32.8236 13.6345C32.276 13.1857 31.9232 12.5125 31.9232 11.7586Z" fill="white"/>
<path d="M35.719 13.3563L30.6228 19.7741C30.5207 19.8998 30.5022 20.0703 30.5764 20.2139L32.0431 23.176C32.1823 23.4543 32.5815 23.4992 32.7764 23.2478L39.1908 15.1605C39.2929 15.0348 39.3114 14.8642 39.2372 14.7206L38.8195 13.8859L43.0616 14.4334C43.6186 14.4783 44.0085 14.4154 44.4633 14.2C45.7629 13.5986 46.3013 12.0907 45.6794 10.843C45.3081 10.089 44.6211 9.66714 43.8228 9.51455L48.5013 3.62629C48.6034 3.50063 48.622 3.33008 48.5477 3.18647L47.0811 0.224386C46.9418 -0.0538702 46.5427 -0.0987502 46.3477 0.152578L39.9334 8.23996C39.8313 8.36562 39.8127 8.53617 39.887 8.67978L40.3418 9.59533L36.5266 9.81076C36.2946 9.82871 36.0625 9.88257 35.8397 9.99028C34.8557 10.4481 34.4473 11.588 34.9207 12.5305C35.0971 12.8985 35.3849 13.1768 35.719 13.3563Z" fill="#056CF2"/>
</g>
<defs>
<clipPath id="clip0_2239_5768">
<rect width="198" height="49" fill="white"/>
</clipPath>
</defs>
</svg>
